G04 #@! TF.FileFunction,Legend,Bot*
%FSLAX46Y46*%
G04 Gerber Fmt 4.6, Leading zero omitted, Abs format (unit mm)*
G04 Created by KiCad (PCBNEW 4.0.7) date 01/27/18 13:27:31*
%MOMM*%
%LPD*%
G01*
G04 APERTURE LIST*
%ADD10C,0.100000*%
%ADD11C,0.300000*%
G04 APERTURE END LIST*
D10*
D11*
X124621428Y-99460714D02*
X124692857Y-99532143D01*
X124907143Y-99603571D01*
X125050000Y-99603571D01*
X125264285Y-99532143D01*
X125407143Y-99389286D01*
X125478571Y-99246429D01*
X125550000Y-98960714D01*
X125550000Y-98746429D01*
X125478571Y-98460714D01*
X125407143Y-98317857D01*
X125264285Y-98175000D01*
X125050000Y-98103571D01*
X124907143Y-98103571D01*
X124692857Y-98175000D01*
X124621428Y-98246429D01*
X123692857Y-98103571D02*
X123407143Y-98103571D01*
X123264285Y-98175000D01*
X123121428Y-98317857D01*
X123050000Y-98603571D01*
X123050000Y-99103571D01*
X123121428Y-99389286D01*
X123264285Y-99532143D01*
X123407143Y-99603571D01*
X123692857Y-99603571D01*
X123835714Y-99532143D01*
X123978571Y-99389286D01*
X124050000Y-99103571D01*
X124050000Y-98603571D01*
X123978571Y-98317857D01*
X123835714Y-98175000D01*
X123692857Y-98103571D01*
X122407142Y-99603571D02*
X122407142Y-98103571D01*
X121907142Y-99175000D01*
X121407142Y-98103571D01*
X121407142Y-99603571D01*
X120192856Y-98817857D02*
X119978570Y-98889286D01*
X119907142Y-98960714D01*
X119835713Y-99103571D01*
X119835713Y-99317857D01*
X119907142Y-99460714D01*
X119978570Y-99532143D01*
X120121428Y-99603571D01*
X120692856Y-99603571D01*
X120692856Y-98103571D01*
X120192856Y-98103571D01*
X120049999Y-98175000D01*
X119978570Y-98246429D01*
X119907142Y-98389286D01*
X119907142Y-98532143D01*
X119978570Y-98675000D01*
X120049999Y-98746429D01*
X120192856Y-98817857D01*
X120692856Y-98817857D01*
X119264285Y-99175000D02*
X118549999Y-99175000D01*
X119407142Y-99603571D02*
X118907142Y-98103571D01*
X118407142Y-99603571D01*
X118121428Y-98103571D02*
X117264285Y-98103571D01*
X117692856Y-99603571D02*
X117692856Y-98103571D01*
X116264285Y-98817857D02*
X116049999Y-98889286D01*
X115978571Y-98960714D01*
X115907142Y-99103571D01*
X115907142Y-99317857D01*
X115978571Y-99460714D01*
X116049999Y-99532143D01*
X116192857Y-99603571D01*
X116764285Y-99603571D01*
X116764285Y-98103571D01*
X116264285Y-98103571D01*
X116121428Y-98175000D01*
X116049999Y-98246429D01*
X115978571Y-98389286D01*
X115978571Y-98532143D01*
X116049999Y-98675000D01*
X116121428Y-98746429D01*
X116264285Y-98817857D01*
X116764285Y-98817857D01*
X114978571Y-98103571D02*
X114692857Y-98103571D01*
X114549999Y-98175000D01*
X114407142Y-98317857D01*
X114335714Y-98603571D01*
X114335714Y-99103571D01*
X114407142Y-99389286D01*
X114549999Y-99532143D01*
X114692857Y-99603571D01*
X114978571Y-99603571D01*
X115121428Y-99532143D01*
X115264285Y-99389286D01*
X115335714Y-99103571D01*
X115335714Y-98603571D01*
X115264285Y-98317857D01*
X115121428Y-98175000D01*
X114978571Y-98103571D01*
X113764285Y-99175000D02*
X113049999Y-99175000D01*
X113907142Y-99603571D02*
X113407142Y-98103571D01*
X112907142Y-99603571D01*
X111549999Y-99603571D02*
X112049999Y-98889286D01*
X112407142Y-99603571D02*
X112407142Y-98103571D01*
X111835714Y-98103571D01*
X111692856Y-98175000D01*
X111621428Y-98246429D01*
X111549999Y-98389286D01*
X111549999Y-98603571D01*
X111621428Y-98746429D01*
X111692856Y-98817857D01*
X111835714Y-98889286D01*
X112407142Y-98889286D01*
X110907142Y-99603571D02*
X110907142Y-98103571D01*
X110549999Y-98103571D01*
X110335714Y-98175000D01*
X110192856Y-98317857D01*
X110121428Y-98460714D01*
X110049999Y-98746429D01*
X110049999Y-98960714D01*
X110121428Y-99246429D01*
X110192856Y-99389286D01*
X110335714Y-99532143D01*
X110549999Y-99603571D01*
X110907142Y-99603571D01*
X108478571Y-98103571D02*
X107978571Y-99603571D01*
X107478571Y-98103571D01*
X106192857Y-99603571D02*
X107050000Y-99603571D01*
X106621428Y-99603571D02*
X106621428Y-98103571D01*
X106764285Y-98317857D01*
X106907143Y-98460714D01*
X107050000Y-98532143D01*
X105550000Y-99460714D02*
X105478572Y-99532143D01*
X105550000Y-99603571D01*
X105621429Y-99532143D01*
X105550000Y-99460714D01*
X105550000Y-99603571D01*
X104550000Y-98103571D02*
X104407143Y-98103571D01*
X104264286Y-98175000D01*
X104192857Y-98246429D01*
X104121428Y-98389286D01*
X104050000Y-98675000D01*
X104050000Y-99032143D01*
X104121428Y-99317857D01*
X104192857Y-99460714D01*
X104264286Y-99532143D01*
X104407143Y-99603571D01*
X104550000Y-99603571D01*
X104692857Y-99532143D01*
X104764286Y-99460714D01*
X104835714Y-99317857D01*
X104907143Y-99032143D01*
X104907143Y-98675000D01*
X104835714Y-98389286D01*
X104764286Y-98246429D01*
X104692857Y-98175000D01*
X104550000Y-98103571D01*
X120835714Y-101725000D02*
X120121428Y-101725000D01*
X120978571Y-102153571D02*
X120478571Y-100653571D01*
X119978571Y-102153571D01*
X118621428Y-102153571D02*
X119121428Y-101439286D01*
X119478571Y-102153571D02*
X119478571Y-100653571D01*
X118907143Y-100653571D01*
X118764285Y-100725000D01*
X118692857Y-100796429D01*
X118621428Y-100939286D01*
X118621428Y-101153571D01*
X118692857Y-101296429D01*
X118764285Y-101367857D01*
X118907143Y-101439286D01*
X119478571Y-101439286D01*
X117978571Y-102153571D02*
X117978571Y-100653571D01*
X117407143Y-100653571D01*
X117264285Y-100725000D01*
X117192857Y-100796429D01*
X117121428Y-100939286D01*
X117121428Y-101153571D01*
X117192857Y-101296429D01*
X117264285Y-101367857D01*
X117407143Y-101439286D01*
X117978571Y-101439286D01*
X116550000Y-101725000D02*
X115835714Y-101725000D01*
X116692857Y-102153571D02*
X116192857Y-100653571D01*
X115692857Y-102153571D01*
X115192857Y-102153571D02*
X115192857Y-100653571D01*
X114335714Y-102153571D01*
X114335714Y-100653571D01*
X111621428Y-102153571D02*
X112121428Y-101439286D01*
X112478571Y-102153571D02*
X112478571Y-100653571D01*
X111907143Y-100653571D01*
X111764285Y-100725000D01*
X111692857Y-100796429D01*
X111621428Y-100939286D01*
X111621428Y-101153571D01*
X111692857Y-101296429D01*
X111764285Y-101367857D01*
X111907143Y-101439286D01*
X112478571Y-101439286D01*
X111050000Y-101725000D02*
X110335714Y-101725000D01*
X111192857Y-102153571D02*
X110692857Y-100653571D01*
X110192857Y-102153571D01*
X109692857Y-100653571D02*
X109692857Y-101867857D01*
X109621429Y-102010714D01*
X109550000Y-102082143D01*
X109407143Y-102153571D01*
X109121429Y-102153571D01*
X108978571Y-102082143D01*
X108907143Y-102010714D01*
X108835714Y-101867857D01*
X108835714Y-100653571D01*
M02*
