G04 #@! TF.FileFunction,Soldermask,Bot*
%FSLAX46Y46*%
G04 Gerber Fmt 4.6, Leading zero omitted, Abs format (unit mm)*
G04 Created by KiCad (PCBNEW 4.0.7) date 01/27/18 13:27:31*
%MOMM*%
%LPD*%
G01*
G04 APERTURE LIST*
%ADD10C,0.100000*%
%ADD11R,1.700000X1.700000*%
%ADD12O,1.700000X1.700000*%
G04 APERTURE END LIST*
D10*
D11*
X135500000Y-99500000D03*
D12*
X135500000Y-102040000D03*
X135500000Y-104580000D03*
D11*
X135040000Y-91710000D03*
D12*
X135040000Y-94250000D03*
X132500000Y-91710000D03*
X132500000Y-94250000D03*
X129960000Y-91710000D03*
X129960000Y-94250000D03*
D11*
X100000000Y-112750000D03*
D12*
X102540000Y-112750000D03*
X105080000Y-112750000D03*
X107620000Y-112750000D03*
X110160000Y-112750000D03*
X112700000Y-112750000D03*
X115240000Y-112750000D03*
X117780000Y-112750000D03*
X120320000Y-112750000D03*
X122860000Y-112750000D03*
X125400000Y-112750000D03*
X127940000Y-112750000D03*
X130480000Y-112750000D03*
X133020000Y-112750000D03*
X135560000Y-112750000D03*
D11*
X99500000Y-87500000D03*
D12*
X102040000Y-87500000D03*
X104580000Y-87500000D03*
X107120000Y-87500000D03*
X109660000Y-87500000D03*
X112200000Y-87500000D03*
X114740000Y-87500000D03*
X117280000Y-87500000D03*
X119820000Y-87500000D03*
X122360000Y-87500000D03*
X124900000Y-87500000D03*
X127440000Y-87500000D03*
X129980000Y-87500000D03*
X132520000Y-87500000D03*
X135060000Y-87500000D03*
D11*
X92750000Y-87500000D03*
D12*
X90210000Y-87500000D03*
D11*
X89000000Y-94460000D03*
D12*
X89000000Y-97000000D03*
X89000000Y-99540000D03*
X89000000Y-102080000D03*
M02*
