G04 #@! TF.FileFunction,Copper,L2,Bot,Signal*
%FSLAX46Y46*%
G04 Gerber Fmt 4.6, Leading zero omitted, Abs format (unit mm)*
G04 Created by KiCad (PCBNEW 4.0.7) date 01/27/18 13:27:30*
%MOMM*%
%LPD*%
G01*
G04 APERTURE LIST*
%ADD10C,0.100000*%
%ADD11R,1.700000X1.700000*%
%ADD12O,1.700000X1.700000*%
%ADD13C,0.600000*%
%ADD14C,0.250000*%
%ADD15C,0.400000*%
%ADD16C,0.254000*%
G04 APERTURE END LIST*
D10*
D11*
X135500000Y-99500000D03*
D12*
X135500000Y-102040000D03*
X135500000Y-104580000D03*
D11*
X135040000Y-91710000D03*
D12*
X135040000Y-94250000D03*
X132500000Y-91710000D03*
X132500000Y-94250000D03*
X129960000Y-91710000D03*
X129960000Y-94250000D03*
D11*
X100000000Y-112750000D03*
D12*
X102540000Y-112750000D03*
X105080000Y-112750000D03*
X107620000Y-112750000D03*
X110160000Y-112750000D03*
X112700000Y-112750000D03*
X115240000Y-112750000D03*
X117780000Y-112750000D03*
X120320000Y-112750000D03*
X122860000Y-112750000D03*
X125400000Y-112750000D03*
X127940000Y-112750000D03*
X130480000Y-112750000D03*
X133020000Y-112750000D03*
X135560000Y-112750000D03*
D11*
X99500000Y-87500000D03*
D12*
X102040000Y-87500000D03*
X104580000Y-87500000D03*
X107120000Y-87500000D03*
X109660000Y-87500000D03*
X112200000Y-87500000D03*
X114740000Y-87500000D03*
X117280000Y-87500000D03*
X119820000Y-87500000D03*
X122360000Y-87500000D03*
X124900000Y-87500000D03*
X127440000Y-87500000D03*
X129980000Y-87500000D03*
X132520000Y-87500000D03*
X135060000Y-87500000D03*
D11*
X92750000Y-87500000D03*
D12*
X90210000Y-87500000D03*
D11*
X89000000Y-94460000D03*
D12*
X89000000Y-97000000D03*
X89000000Y-99540000D03*
X89000000Y-102080000D03*
D13*
X103618587Y-111625010D03*
X109900234Y-95625296D03*
X107652986Y-96441042D03*
X111000000Y-89200000D03*
X104200385Y-102717685D03*
X110233333Y-108106275D03*
X115470037Y-99949727D03*
X103900003Y-104718789D03*
X104825395Y-101000000D03*
X107400000Y-101800000D03*
X107600000Y-103400000D03*
X107200000Y-100600000D03*
X113949988Y-105400000D03*
X112600000Y-105400000D03*
X117024789Y-96805990D03*
X101850008Y-99149387D03*
X100600000Y-99000000D03*
X107820010Y-91965661D03*
X107300009Y-93600000D03*
X104200000Y-95400000D03*
X96200000Y-89200000D03*
X96000002Y-92000000D03*
X95800000Y-104400000D03*
X94400000Y-103400000D03*
X89600000Y-109600000D03*
X102000000Y-107200000D03*
X109800000Y-107600000D03*
X114750000Y-98850000D03*
X102650002Y-90000000D03*
X104400000Y-91600000D03*
X130899998Y-103200000D03*
X93391229Y-100530264D03*
X93407497Y-99895806D03*
X93286454Y-96637942D03*
X93235813Y-95988814D03*
X109850005Y-97652563D03*
X130600000Y-98200000D03*
X118400000Y-98200000D03*
X111309567Y-97988063D03*
X112942033Y-111245158D03*
X110400000Y-96249998D03*
X107600000Y-97400000D03*
X105400000Y-102600000D03*
X110560939Y-98270152D03*
X112148943Y-111350170D03*
X110998924Y-100992042D03*
X107595090Y-107558950D03*
X101123569Y-101843877D03*
X115770032Y-105570032D03*
X111659046Y-101443992D03*
X116523427Y-103790690D03*
X101600000Y-96600000D03*
X118374990Y-102825010D03*
X102165694Y-97225010D03*
X120322648Y-103097647D03*
X114430023Y-109549170D03*
X130000000Y-105600000D03*
X115680035Y-109747434D03*
X126000000Y-107000000D03*
X121800000Y-99200000D03*
X112062105Y-89718852D03*
X116400000Y-95400000D03*
X124000000Y-90200000D03*
X114066807Y-110589576D03*
X120864906Y-98861265D03*
D14*
X103918586Y-111325011D02*
X103618587Y-111625010D01*
X104682233Y-103199533D02*
X104682233Y-110561364D01*
X104200385Y-102717685D02*
X104682233Y-103199533D01*
X104682233Y-110561364D02*
X103918586Y-111325011D01*
X109600235Y-95925295D02*
X109900234Y-95625296D01*
X109084488Y-96441042D02*
X109600235Y-95925295D01*
X107652986Y-96441042D02*
X109084488Y-96441042D01*
X115718900Y-91710000D02*
X113102742Y-89093842D01*
X113102742Y-89093842D02*
X111106158Y-89093842D01*
X129960000Y-91710000D02*
X115718900Y-91710000D01*
X111106158Y-89093842D02*
X111000000Y-89200000D01*
X114750000Y-98850000D02*
X115470037Y-99570037D01*
X115470037Y-99570037D02*
X115470037Y-99949727D01*
X116794010Y-96805990D02*
X117024789Y-96805990D01*
X114750000Y-98850000D02*
X116794010Y-96805990D01*
X118400000Y-98200000D02*
X115418205Y-101181795D01*
X111511930Y-97306528D02*
X110196040Y-97306528D01*
X110196040Y-97306528D02*
X110150004Y-97352564D01*
X115418205Y-101181795D02*
X115387197Y-101181795D01*
X115387197Y-101181795D02*
X111511930Y-97306528D01*
X110150004Y-97352564D02*
X109850005Y-97652563D01*
X118400000Y-98200000D02*
X130600000Y-98200000D01*
X111609566Y-98409566D02*
X111609566Y-98288062D01*
X116000002Y-102799998D02*
X115999998Y-102799998D01*
X115999998Y-102799998D02*
X111609566Y-98409566D01*
X112942033Y-111245158D02*
X112942033Y-109918339D01*
X119600000Y-103260372D02*
X119600000Y-101800000D01*
X111609566Y-98288062D02*
X111309567Y-97988063D01*
X117200000Y-101600000D02*
X116000002Y-102799998D01*
X119400000Y-101600000D02*
X117200000Y-101600000D01*
X119600000Y-101800000D02*
X119400000Y-101600000D01*
X112942033Y-109918339D02*
X119600000Y-103260372D01*
X109596879Y-97053119D02*
X110100001Y-96549997D01*
X107600000Y-97400000D02*
X107946881Y-97053119D01*
X107946881Y-97053119D02*
X109596879Y-97053119D01*
X110100001Y-96549997D02*
X110400000Y-96249998D01*
X102540000Y-112750000D02*
X103383042Y-112750000D01*
X105400000Y-110733042D02*
X105400000Y-103024264D01*
X103383042Y-112750000D02*
X105400000Y-110733042D01*
X105400000Y-103024264D02*
X105400000Y-102600000D01*
X115651201Y-103250009D02*
X110671344Y-98270152D01*
X110671344Y-98270152D02*
X110560939Y-98270152D01*
X112148943Y-110075019D02*
X119000000Y-103223962D01*
X119000000Y-103223962D02*
X119000000Y-102200000D01*
X119000000Y-102200000D02*
X117236410Y-102200000D01*
X117236410Y-102200000D02*
X116186401Y-103250009D01*
X116186401Y-103250009D02*
X115651201Y-103250009D01*
X112148943Y-111350170D02*
X112148943Y-110075019D01*
X107595090Y-107558950D02*
X107595090Y-108077136D01*
X107595090Y-108077136D02*
X111417955Y-111900001D01*
X111417955Y-111900001D02*
X111850001Y-111900001D01*
X111850001Y-111900001D02*
X112700000Y-112750000D01*
D15*
X112524768Y-112750000D02*
X112700000Y-112750000D01*
D14*
X103749457Y-99217989D02*
X108350335Y-99217989D01*
X110574660Y-100992042D02*
X110998924Y-100992042D01*
X101123569Y-101843877D02*
X103749457Y-99217989D01*
X108350335Y-99217989D02*
X110124388Y-100992042D01*
X110124388Y-100992042D02*
X110574660Y-100992042D01*
X115770032Y-105554978D02*
X115770032Y-105570032D01*
X111659046Y-101443992D02*
X115770032Y-105554978D01*
X111151810Y-99388219D02*
X115554281Y-103790690D01*
X105874998Y-96600000D02*
X107592965Y-98317967D01*
X115554281Y-103790690D02*
X116099163Y-103790690D01*
X108865122Y-98317967D02*
X109935374Y-99388219D01*
X109935374Y-99388219D02*
X111151810Y-99388219D01*
X101600000Y-96600000D02*
X105874998Y-96600000D01*
X107592965Y-98317967D02*
X108865122Y-98317967D01*
X116099163Y-103790690D02*
X116523427Y-103790690D01*
X109918788Y-100150031D02*
X111277211Y-100150031D01*
X111277211Y-100150031D02*
X115677169Y-104549989D01*
X103708662Y-98767978D02*
X108536735Y-98767978D01*
X115677169Y-104549989D02*
X116650011Y-104549989D01*
X116650011Y-104549989D02*
X118074991Y-103125009D01*
X118074991Y-103125009D02*
X118374990Y-102825010D01*
X108536735Y-98767978D02*
X109918788Y-100150031D01*
X102165694Y-97225010D02*
X103708662Y-98767978D01*
X120322648Y-103192019D02*
X120322648Y-103097647D01*
X114430023Y-109084644D02*
X120322648Y-103192019D01*
X114430023Y-109549170D02*
X114430023Y-109084644D01*
X130000000Y-105600000D02*
X130000000Y-109730000D01*
X130000000Y-109730000D02*
X133020000Y-112750000D01*
X121800000Y-105200000D02*
X120426528Y-105200000D01*
X120426528Y-105200000D02*
X115879094Y-109747434D01*
X115879094Y-109747434D02*
X115680035Y-109747434D01*
X121800000Y-99200000D02*
X121800000Y-105200000D01*
X121800000Y-105200000D02*
X124200000Y-105200000D01*
X124200000Y-105200000D02*
X126000000Y-107000000D01*
X112062105Y-90143116D02*
X112062105Y-89718852D01*
X112062105Y-91062105D02*
X112062105Y-90143116D01*
X116400000Y-95400000D02*
X112062105Y-91062105D01*
X115525004Y-90200000D02*
X112825004Y-87500000D01*
X112825004Y-87500000D02*
X112200000Y-87500000D01*
X124000000Y-90200000D02*
X115525004Y-90200000D01*
X120864906Y-98861265D02*
X120864906Y-102776290D01*
X120864906Y-102776290D02*
X121188615Y-103099999D01*
X121188615Y-103099999D02*
X121204194Y-103099999D01*
X121204194Y-103099999D02*
X115055025Y-109249168D01*
X115055025Y-109249168D02*
X115055025Y-110025622D01*
X115055025Y-110025622D02*
X114491071Y-110589576D01*
X114491071Y-110589576D02*
X114066807Y-110589576D01*
D16*
G36*
X135998094Y-85797497D02*
X136179687Y-85918833D01*
X136581167Y-86320313D01*
X136702503Y-86501906D01*
X136815000Y-87067466D01*
X136815000Y-98216974D01*
X136709698Y-98111673D01*
X136476309Y-98015000D01*
X135785750Y-98015000D01*
X135627000Y-98173750D01*
X135627000Y-99373000D01*
X135647000Y-99373000D01*
X135647000Y-99627000D01*
X135627000Y-99627000D01*
X135627000Y-99647000D01*
X135373000Y-99647000D01*
X135373000Y-99627000D01*
X134173750Y-99627000D01*
X134015000Y-99785750D01*
X134015000Y-100476310D01*
X134111673Y-100709699D01*
X134290302Y-100888327D01*
X134464777Y-100960597D01*
X134420853Y-100989946D01*
X134098946Y-101471715D01*
X133985907Y-102040000D01*
X134098946Y-102608285D01*
X134420853Y-103090054D01*
X134750026Y-103310000D01*
X134420853Y-103529946D01*
X134098946Y-104011715D01*
X133985907Y-104580000D01*
X134098946Y-105148285D01*
X134420853Y-105630054D01*
X134902622Y-105951961D01*
X135470907Y-106065000D01*
X135529093Y-106065000D01*
X136097378Y-105951961D01*
X136579147Y-105630054D01*
X136815000Y-105277074D01*
X136815000Y-111977577D01*
X136610054Y-111670853D01*
X136128285Y-111348946D01*
X135560000Y-111235907D01*
X134991715Y-111348946D01*
X134509946Y-111670853D01*
X134290000Y-112000026D01*
X134070054Y-111670853D01*
X133588285Y-111348946D01*
X133020000Y-111235907D01*
X132653592Y-111308790D01*
X130760000Y-109415198D01*
X130760000Y-106162463D01*
X130792192Y-106130327D01*
X130934838Y-105786799D01*
X130935162Y-105414833D01*
X130793117Y-105071057D01*
X130530327Y-104807808D01*
X130186799Y-104665162D01*
X129814833Y-104664838D01*
X129471057Y-104806883D01*
X129207808Y-105069673D01*
X129065162Y-105413201D01*
X129064838Y-105785167D01*
X129206883Y-106128943D01*
X129240000Y-106162118D01*
X129240000Y-109730000D01*
X129297852Y-110020839D01*
X129462599Y-110267401D01*
X130439217Y-111244019D01*
X129911715Y-111348946D01*
X129429946Y-111670853D01*
X129210000Y-112000026D01*
X128990054Y-111670853D01*
X128508285Y-111348946D01*
X127940000Y-111235907D01*
X127371715Y-111348946D01*
X126889946Y-111670853D01*
X126670000Y-112000026D01*
X126450054Y-111670853D01*
X125968285Y-111348946D01*
X125400000Y-111235907D01*
X124831715Y-111348946D01*
X124349946Y-111670853D01*
X124130000Y-112000026D01*
X123910054Y-111670853D01*
X123428285Y-111348946D01*
X122860000Y-111235907D01*
X122291715Y-111348946D01*
X121809946Y-111670853D01*
X121590000Y-112000026D01*
X121370054Y-111670853D01*
X120888285Y-111348946D01*
X120320000Y-111235907D01*
X119751715Y-111348946D01*
X119269946Y-111670853D01*
X119050000Y-112000026D01*
X118830054Y-111670853D01*
X118348285Y-111348946D01*
X117780000Y-111235907D01*
X117211715Y-111348946D01*
X116729946Y-111670853D01*
X116510000Y-112000026D01*
X116290054Y-111670853D01*
X115808285Y-111348946D01*
X115240000Y-111235907D01*
X114671715Y-111348946D01*
X114189946Y-111670853D01*
X113970000Y-112000026D01*
X113767087Y-111696345D01*
X113844587Y-111509706D01*
X113880008Y-111524414D01*
X114251974Y-111524738D01*
X114595750Y-111382693D01*
X114663229Y-111315331D01*
X114781910Y-111291724D01*
X115028472Y-111126977D01*
X115479062Y-110676387D01*
X115493236Y-110682272D01*
X115865202Y-110682596D01*
X116208978Y-110540551D01*
X116242153Y-110507434D01*
X117252566Y-110507434D01*
X117543405Y-110449582D01*
X117789967Y-110284835D01*
X122114802Y-105960000D01*
X123885198Y-105960000D01*
X125064878Y-107139680D01*
X125064838Y-107185167D01*
X125206883Y-107528943D01*
X125469673Y-107792192D01*
X125813201Y-107934838D01*
X126185167Y-107935162D01*
X126528943Y-107793117D01*
X126792192Y-107530327D01*
X126934838Y-107186799D01*
X126935162Y-106814833D01*
X126793117Y-106471057D01*
X126530327Y-106207808D01*
X126186799Y-106065162D01*
X126139923Y-106065121D01*
X124737401Y-104662599D01*
X124490839Y-104497852D01*
X124200000Y-104440000D01*
X122560000Y-104440000D01*
X122560000Y-99762463D01*
X122592192Y-99730327D01*
X122734838Y-99386799D01*
X122735162Y-99014833D01*
X122712506Y-98960000D01*
X130037537Y-98960000D01*
X130069673Y-98992192D01*
X130413201Y-99134838D01*
X130785167Y-99135162D01*
X131128943Y-98993117D01*
X131392192Y-98730327D01*
X131477995Y-98523690D01*
X134015000Y-98523690D01*
X134015000Y-99214250D01*
X134173750Y-99373000D01*
X135373000Y-99373000D01*
X135373000Y-98173750D01*
X135214250Y-98015000D01*
X134523691Y-98015000D01*
X134290302Y-98111673D01*
X134111673Y-98290301D01*
X134015000Y-98523690D01*
X131477995Y-98523690D01*
X131534838Y-98386799D01*
X131535162Y-98014833D01*
X131393117Y-97671057D01*
X131130327Y-97407808D01*
X130786799Y-97265162D01*
X130414833Y-97264838D01*
X130071057Y-97406883D01*
X130037882Y-97440000D01*
X118962463Y-97440000D01*
X118930327Y-97407808D01*
X118586799Y-97265162D01*
X118214833Y-97264838D01*
X117871057Y-97406883D01*
X117607808Y-97669673D01*
X117465162Y-98013201D01*
X117465121Y-98060077D01*
X115402701Y-100122497D01*
X112049331Y-96769127D01*
X111802769Y-96604380D01*
X111511930Y-96546528D01*
X111289273Y-96546528D01*
X111334838Y-96436797D01*
X111335162Y-96064831D01*
X111193117Y-95721055D01*
X110930327Y-95457806D01*
X110824552Y-95413884D01*
X110693351Y-95096353D01*
X110430561Y-94833104D01*
X110087033Y-94690458D01*
X109715067Y-94690134D01*
X109371291Y-94832179D01*
X109108042Y-95094969D01*
X108965396Y-95438497D01*
X108965355Y-95485373D01*
X108769686Y-95681042D01*
X108215449Y-95681042D01*
X108183313Y-95648850D01*
X107839785Y-95506204D01*
X107467819Y-95505880D01*
X107124043Y-95647925D01*
X106860794Y-95910715D01*
X106718148Y-96254243D01*
X106718049Y-96368249D01*
X106412399Y-96062599D01*
X106165837Y-95897852D01*
X105874998Y-95840000D01*
X102162463Y-95840000D01*
X102130327Y-95807808D01*
X101786799Y-95665162D01*
X101414833Y-95664838D01*
X101071057Y-95806883D01*
X100807808Y-96069673D01*
X100665162Y-96413201D01*
X100664838Y-96785167D01*
X100806883Y-97128943D01*
X101069673Y-97392192D01*
X101254877Y-97469096D01*
X101372577Y-97753953D01*
X101635367Y-98017202D01*
X101978895Y-98159848D01*
X102025771Y-98159889D01*
X102879263Y-99013381D01*
X100983889Y-100908755D01*
X100938402Y-100908715D01*
X100594626Y-101050760D01*
X100331377Y-101313550D01*
X100188731Y-101657078D01*
X100188407Y-102029044D01*
X100330452Y-102372820D01*
X100593242Y-102636069D01*
X100936770Y-102778715D01*
X101308736Y-102779039D01*
X101652512Y-102636994D01*
X101915761Y-102374204D01*
X102058407Y-102030676D01*
X102058448Y-101983800D01*
X104064259Y-99977989D01*
X108035533Y-99977989D01*
X109586987Y-101529443D01*
X109833549Y-101694190D01*
X110124388Y-101752042D01*
X110436461Y-101752042D01*
X110468597Y-101784234D01*
X110812125Y-101926880D01*
X110846912Y-101926910D01*
X110865929Y-101972935D01*
X111128719Y-102236184D01*
X111472247Y-102378830D01*
X111519123Y-102378871D01*
X114834923Y-105694671D01*
X114834870Y-105755199D01*
X114976915Y-106098975D01*
X115013518Y-106135642D01*
X111611542Y-109537618D01*
X111446795Y-109784180D01*
X111388943Y-110075019D01*
X111388943Y-110787707D01*
X111384699Y-110791943D01*
X108473763Y-107881007D01*
X108529928Y-107745749D01*
X108530252Y-107373783D01*
X108388207Y-107030007D01*
X108125417Y-106766758D01*
X107781889Y-106624112D01*
X107409923Y-106623788D01*
X107066147Y-106765833D01*
X106802898Y-107028623D01*
X106660252Y-107372151D01*
X106659928Y-107744117D01*
X106801973Y-108087893D01*
X106846003Y-108132000D01*
X106892942Y-108367975D01*
X107057689Y-108614537D01*
X109758852Y-111315700D01*
X109591715Y-111348946D01*
X109109946Y-111670853D01*
X108882298Y-112011553D01*
X108815183Y-111868642D01*
X108386924Y-111478355D01*
X107976890Y-111308524D01*
X107747000Y-111429845D01*
X107747000Y-112623000D01*
X107767000Y-112623000D01*
X107767000Y-112877000D01*
X107747000Y-112877000D01*
X107747000Y-114070155D01*
X107976890Y-114191476D01*
X108386924Y-114021645D01*
X108815183Y-113631358D01*
X108882298Y-113488447D01*
X109109946Y-113829147D01*
X109591715Y-114151054D01*
X110160000Y-114264093D01*
X110728285Y-114151054D01*
X111210054Y-113829147D01*
X111430000Y-113499974D01*
X111649946Y-113829147D01*
X112131715Y-114151054D01*
X112700000Y-114264093D01*
X113268285Y-114151054D01*
X113750054Y-113829147D01*
X113970000Y-113499974D01*
X114189946Y-113829147D01*
X114671715Y-114151054D01*
X115240000Y-114264093D01*
X115808285Y-114151054D01*
X116290054Y-113829147D01*
X116510000Y-113499974D01*
X116729946Y-113829147D01*
X117211715Y-114151054D01*
X117780000Y-114264093D01*
X118348285Y-114151054D01*
X118830054Y-113829147D01*
X119050000Y-113499974D01*
X119269946Y-113829147D01*
X119751715Y-114151054D01*
X120320000Y-114264093D01*
X120888285Y-114151054D01*
X121370054Y-113829147D01*
X121590000Y-113499974D01*
X121809946Y-113829147D01*
X122291715Y-114151054D01*
X122860000Y-114264093D01*
X123428285Y-114151054D01*
X123910054Y-113829147D01*
X124130000Y-113499974D01*
X124349946Y-113829147D01*
X124831715Y-114151054D01*
X125400000Y-114264093D01*
X125968285Y-114151054D01*
X126450054Y-113829147D01*
X126670000Y-113499974D01*
X126889946Y-113829147D01*
X127371715Y-114151054D01*
X127940000Y-114264093D01*
X128508285Y-114151054D01*
X128990054Y-113829147D01*
X129210000Y-113499974D01*
X129429946Y-113829147D01*
X129911715Y-114151054D01*
X130480000Y-114264093D01*
X131048285Y-114151054D01*
X131530054Y-113829147D01*
X131750000Y-113499974D01*
X131969946Y-113829147D01*
X132451715Y-114151054D01*
X133020000Y-114264093D01*
X133588285Y-114151054D01*
X134070054Y-113829147D01*
X134290000Y-113499974D01*
X134509946Y-113829147D01*
X134991715Y-114151054D01*
X135498593Y-114251878D01*
X135424951Y-114315000D01*
X89067466Y-114315000D01*
X88501906Y-114202503D01*
X88079643Y-113920357D01*
X87797497Y-113498094D01*
X87685000Y-112932533D01*
X87685000Y-111900000D01*
X98502560Y-111900000D01*
X98502560Y-113600000D01*
X98546838Y-113835317D01*
X98685910Y-114051441D01*
X98898110Y-114196431D01*
X99150000Y-114247440D01*
X100850000Y-114247440D01*
X101085317Y-114203162D01*
X101301441Y-114064090D01*
X101446431Y-113851890D01*
X101460086Y-113784459D01*
X101489946Y-113829147D01*
X101971715Y-114151054D01*
X102540000Y-114264093D01*
X103108285Y-114151054D01*
X103590054Y-113829147D01*
X103810000Y-113499974D01*
X104029946Y-113829147D01*
X104511715Y-114151054D01*
X105080000Y-114264093D01*
X105648285Y-114151054D01*
X106130054Y-113829147D01*
X106357702Y-113488447D01*
X106424817Y-113631358D01*
X106853076Y-114021645D01*
X107263110Y-114191476D01*
X107493000Y-114070155D01*
X107493000Y-112877000D01*
X107473000Y-112877000D01*
X107473000Y-112623000D01*
X107493000Y-112623000D01*
X107493000Y-111429845D01*
X107263110Y-111308524D01*
X106853076Y-111478355D01*
X106424817Y-111868642D01*
X106357702Y-112011553D01*
X106130054Y-111670853D01*
X105774538Y-111433306D01*
X105937401Y-111270443D01*
X106102148Y-111023882D01*
X106160000Y-110733042D01*
X106160000Y-103162463D01*
X106192192Y-103130327D01*
X106334838Y-102786799D01*
X106335162Y-102414833D01*
X106193117Y-102071057D01*
X105930327Y-101807808D01*
X105586799Y-101665162D01*
X105214833Y-101664838D01*
X104871057Y-101806883D01*
X104741457Y-101936257D01*
X104730712Y-101925493D01*
X104387184Y-101782847D01*
X104015218Y-101782523D01*
X103671442Y-101924568D01*
X103408193Y-102187358D01*
X103265547Y-102530886D01*
X103265223Y-102902852D01*
X103407268Y-103246628D01*
X103670058Y-103509877D01*
X103922233Y-103614590D01*
X103922233Y-110246562D01*
X103478907Y-110689888D01*
X103433420Y-110689848D01*
X103089644Y-110831893D01*
X102826395Y-111094683D01*
X102750377Y-111277754D01*
X102540000Y-111235907D01*
X101971715Y-111348946D01*
X101489946Y-111670853D01*
X101462150Y-111712452D01*
X101453162Y-111664683D01*
X101314090Y-111448559D01*
X101101890Y-111303569D01*
X100850000Y-111252560D01*
X99150000Y-111252560D01*
X98914683Y-111296838D01*
X98698559Y-111435910D01*
X98553569Y-111648110D01*
X98502560Y-111900000D01*
X87685000Y-111900000D01*
X87685000Y-102777074D01*
X87920853Y-103130054D01*
X88402622Y-103451961D01*
X88970907Y-103565000D01*
X89029093Y-103565000D01*
X89597378Y-103451961D01*
X90079147Y-103130054D01*
X90401054Y-102648285D01*
X90514093Y-102080000D01*
X90401054Y-101511715D01*
X90079147Y-101029946D01*
X89749974Y-100810000D01*
X90079147Y-100590054D01*
X90401054Y-100108285D01*
X90514093Y-99540000D01*
X90401054Y-98971715D01*
X90079147Y-98489946D01*
X89749974Y-98270000D01*
X90079147Y-98050054D01*
X90401054Y-97568285D01*
X90514093Y-97000000D01*
X90401054Y-96431715D01*
X90079147Y-95949946D01*
X90037548Y-95922150D01*
X90085317Y-95913162D01*
X90301441Y-95774090D01*
X90446431Y-95561890D01*
X90497440Y-95310000D01*
X90497440Y-93610000D01*
X90453162Y-93374683D01*
X90314090Y-93158559D01*
X90101890Y-93013569D01*
X89850000Y-92962560D01*
X88150000Y-92962560D01*
X87914683Y-93006838D01*
X87698559Y-93145910D01*
X87685000Y-93165754D01*
X87685000Y-87856892D01*
X88768514Y-87856892D01*
X89014817Y-88381358D01*
X89443076Y-88771645D01*
X89853110Y-88941476D01*
X90083000Y-88820155D01*
X90083000Y-87627000D01*
X88889181Y-87627000D01*
X88768514Y-87856892D01*
X87685000Y-87856892D01*
X87685000Y-87143108D01*
X88768514Y-87143108D01*
X88889181Y-87373000D01*
X90083000Y-87373000D01*
X90083000Y-86179845D01*
X90337000Y-86179845D01*
X90337000Y-87373000D01*
X90357000Y-87373000D01*
X90357000Y-87627000D01*
X90337000Y-87627000D01*
X90337000Y-88820155D01*
X90566890Y-88941476D01*
X90976924Y-88771645D01*
X91279937Y-88495499D01*
X91296838Y-88585317D01*
X91435910Y-88801441D01*
X91648110Y-88946431D01*
X91900000Y-88997440D01*
X93600000Y-88997440D01*
X93835317Y-88953162D01*
X94051441Y-88814090D01*
X94196431Y-88601890D01*
X94247440Y-88350000D01*
X94247440Y-86650000D01*
X98002560Y-86650000D01*
X98002560Y-88350000D01*
X98046838Y-88585317D01*
X98185910Y-88801441D01*
X98398110Y-88946431D01*
X98650000Y-88997440D01*
X100350000Y-88997440D01*
X100585317Y-88953162D01*
X100801441Y-88814090D01*
X100946431Y-88601890D01*
X100968301Y-88493893D01*
X101273076Y-88771645D01*
X101683110Y-88941476D01*
X101913000Y-88820155D01*
X101913000Y-87627000D01*
X101893000Y-87627000D01*
X101893000Y-87373000D01*
X101913000Y-87373000D01*
X101913000Y-86179845D01*
X102167000Y-86179845D01*
X102167000Y-87373000D01*
X102187000Y-87373000D01*
X102187000Y-87627000D01*
X102167000Y-87627000D01*
X102167000Y-88820155D01*
X102396890Y-88941476D01*
X102806924Y-88771645D01*
X103235183Y-88381358D01*
X103302298Y-88238447D01*
X103529946Y-88579147D01*
X104011715Y-88901054D01*
X104580000Y-89014093D01*
X105148285Y-88901054D01*
X105630054Y-88579147D01*
X105850000Y-88249974D01*
X106069946Y-88579147D01*
X106551715Y-88901054D01*
X107120000Y-89014093D01*
X107688285Y-88901054D01*
X108170054Y-88579147D01*
X108390000Y-88249974D01*
X108609946Y-88579147D01*
X109091715Y-88901054D01*
X109660000Y-89014093D01*
X110101236Y-88926326D01*
X110065162Y-89013201D01*
X110064838Y-89385167D01*
X110206883Y-89728943D01*
X110469673Y-89992192D01*
X110813201Y-90134838D01*
X111185167Y-90135162D01*
X111217012Y-90122004D01*
X111268988Y-90247795D01*
X111302105Y-90280970D01*
X111302105Y-91062105D01*
X111359957Y-91352944D01*
X111524704Y-91599506D01*
X115464878Y-95539680D01*
X115464838Y-95585167D01*
X115606883Y-95928943D01*
X115869673Y-96192192D01*
X116213201Y-96334838D01*
X116585167Y-96335162D01*
X116928943Y-96193117D01*
X117192192Y-95930327D01*
X117334838Y-95586799D01*
X117335162Y-95214833D01*
X117193117Y-94871057D01*
X116930327Y-94607808D01*
X116928122Y-94606892D01*
X128518514Y-94606892D01*
X128764817Y-95131358D01*
X129193076Y-95521645D01*
X129603110Y-95691476D01*
X129833000Y-95570155D01*
X129833000Y-94377000D01*
X128639181Y-94377000D01*
X128518514Y-94606892D01*
X116928122Y-94606892D01*
X116586799Y-94465162D01*
X116539923Y-94465121D01*
X112822105Y-90747303D01*
X112822105Y-90281315D01*
X112854297Y-90249179D01*
X112950821Y-90016723D01*
X115181499Y-92247401D01*
X115428061Y-92412148D01*
X115718900Y-92470000D01*
X128696699Y-92470000D01*
X128909946Y-92789147D01*
X129193101Y-92978345D01*
X129193076Y-92978355D01*
X128764817Y-93368642D01*
X128518514Y-93893108D01*
X128639181Y-94123000D01*
X129833000Y-94123000D01*
X129833000Y-94103000D01*
X130087000Y-94103000D01*
X130087000Y-94123000D01*
X130107000Y-94123000D01*
X130107000Y-94377000D01*
X130087000Y-94377000D01*
X130087000Y-95570155D01*
X130316890Y-95691476D01*
X130726924Y-95521645D01*
X131155183Y-95131358D01*
X131222298Y-94988447D01*
X131449946Y-95329147D01*
X131931715Y-95651054D01*
X132500000Y-95764093D01*
X133068285Y-95651054D01*
X133550054Y-95329147D01*
X133770000Y-94999974D01*
X133989946Y-95329147D01*
X134471715Y-95651054D01*
X135040000Y-95764093D01*
X135608285Y-95651054D01*
X136090054Y-95329147D01*
X136411961Y-94847378D01*
X136525000Y-94279093D01*
X136525000Y-94220907D01*
X136411961Y-93652622D01*
X136090054Y-93170853D01*
X136088821Y-93170029D01*
X136125317Y-93163162D01*
X136341441Y-93024090D01*
X136486431Y-92811890D01*
X136537440Y-92560000D01*
X136537440Y-90860000D01*
X136493162Y-90624683D01*
X136354090Y-90408559D01*
X136141890Y-90263569D01*
X135890000Y-90212560D01*
X134190000Y-90212560D01*
X133954683Y-90256838D01*
X133738559Y-90395910D01*
X133593569Y-90608110D01*
X133579914Y-90675541D01*
X133550054Y-90630853D01*
X133068285Y-90308946D01*
X132500000Y-90195907D01*
X131931715Y-90308946D01*
X131449946Y-90630853D01*
X131230000Y-90960026D01*
X131010054Y-90630853D01*
X130528285Y-90308946D01*
X129960000Y-90195907D01*
X129391715Y-90308946D01*
X128909946Y-90630853D01*
X128696699Y-90950000D01*
X124572135Y-90950000D01*
X124792192Y-90730327D01*
X124934838Y-90386799D01*
X124935162Y-90014833D01*
X124793117Y-89671057D01*
X124530327Y-89407808D01*
X124186799Y-89265162D01*
X123814833Y-89264838D01*
X123471057Y-89406883D01*
X123437882Y-89440000D01*
X115839806Y-89440000D01*
X115302092Y-88902286D01*
X115308285Y-88901054D01*
X115790054Y-88579147D01*
X116010000Y-88249974D01*
X116229946Y-88579147D01*
X116711715Y-88901054D01*
X117280000Y-89014093D01*
X117848285Y-88901054D01*
X118330054Y-88579147D01*
X118550000Y-88249974D01*
X118769946Y-88579147D01*
X119251715Y-88901054D01*
X119820000Y-89014093D01*
X120388285Y-88901054D01*
X120870054Y-88579147D01*
X121090000Y-88249974D01*
X121309946Y-88579147D01*
X121791715Y-88901054D01*
X122360000Y-89014093D01*
X122928285Y-88901054D01*
X123410054Y-88579147D01*
X123630000Y-88249974D01*
X123849946Y-88579147D01*
X124331715Y-88901054D01*
X124900000Y-89014093D01*
X125468285Y-88901054D01*
X125950054Y-88579147D01*
X126170000Y-88249974D01*
X126389946Y-88579147D01*
X126871715Y-88901054D01*
X127440000Y-89014093D01*
X128008285Y-88901054D01*
X128490054Y-88579147D01*
X128710000Y-88249974D01*
X128929946Y-88579147D01*
X129411715Y-88901054D01*
X129980000Y-89014093D01*
X130548285Y-88901054D01*
X131030054Y-88579147D01*
X131250000Y-88249974D01*
X131469946Y-88579147D01*
X131951715Y-88901054D01*
X132520000Y-89014093D01*
X133088285Y-88901054D01*
X133570054Y-88579147D01*
X133790000Y-88249974D01*
X134009946Y-88579147D01*
X134491715Y-88901054D01*
X135060000Y-89014093D01*
X135628285Y-88901054D01*
X136110054Y-88579147D01*
X136431961Y-88097378D01*
X136545000Y-87529093D01*
X136545000Y-87470907D01*
X136431961Y-86902622D01*
X136110054Y-86420853D01*
X135628285Y-86098946D01*
X135060000Y-85985907D01*
X134491715Y-86098946D01*
X134009946Y-86420853D01*
X133790000Y-86750026D01*
X133570054Y-86420853D01*
X133088285Y-86098946D01*
X132520000Y-85985907D01*
X131951715Y-86098946D01*
X131469946Y-86420853D01*
X131250000Y-86750026D01*
X131030054Y-86420853D01*
X130548285Y-86098946D01*
X129980000Y-85985907D01*
X129411715Y-86098946D01*
X128929946Y-86420853D01*
X128710000Y-86750026D01*
X128490054Y-86420853D01*
X128008285Y-86098946D01*
X127440000Y-85985907D01*
X126871715Y-86098946D01*
X126389946Y-86420853D01*
X126170000Y-86750026D01*
X125950054Y-86420853D01*
X125468285Y-86098946D01*
X124900000Y-85985907D01*
X124331715Y-86098946D01*
X123849946Y-86420853D01*
X123630000Y-86750026D01*
X123410054Y-86420853D01*
X122928285Y-86098946D01*
X122360000Y-85985907D01*
X121791715Y-86098946D01*
X121309946Y-86420853D01*
X121090000Y-86750026D01*
X120870054Y-86420853D01*
X120388285Y-86098946D01*
X119820000Y-85985907D01*
X119251715Y-86098946D01*
X118769946Y-86420853D01*
X118550000Y-86750026D01*
X118330054Y-86420853D01*
X117848285Y-86098946D01*
X117280000Y-85985907D01*
X116711715Y-86098946D01*
X116229946Y-86420853D01*
X116010000Y-86750026D01*
X115790054Y-86420853D01*
X115308285Y-86098946D01*
X114740000Y-85985907D01*
X114171715Y-86098946D01*
X113689946Y-86420853D01*
X113470000Y-86750026D01*
X113250054Y-86420853D01*
X112768285Y-86098946D01*
X112200000Y-85985907D01*
X111631715Y-86098946D01*
X111149946Y-86420853D01*
X110930000Y-86750026D01*
X110710054Y-86420853D01*
X110228285Y-86098946D01*
X109660000Y-85985907D01*
X109091715Y-86098946D01*
X108609946Y-86420853D01*
X108390000Y-86750026D01*
X108170054Y-86420853D01*
X107688285Y-86098946D01*
X107120000Y-85985907D01*
X106551715Y-86098946D01*
X106069946Y-86420853D01*
X105850000Y-86750026D01*
X105630054Y-86420853D01*
X105148285Y-86098946D01*
X104580000Y-85985907D01*
X104011715Y-86098946D01*
X103529946Y-86420853D01*
X103302298Y-86761553D01*
X103235183Y-86618642D01*
X102806924Y-86228355D01*
X102396890Y-86058524D01*
X102167000Y-86179845D01*
X101913000Y-86179845D01*
X101683110Y-86058524D01*
X101273076Y-86228355D01*
X100970063Y-86504501D01*
X100953162Y-86414683D01*
X100814090Y-86198559D01*
X100601890Y-86053569D01*
X100350000Y-86002560D01*
X98650000Y-86002560D01*
X98414683Y-86046838D01*
X98198559Y-86185910D01*
X98053569Y-86398110D01*
X98002560Y-86650000D01*
X94247440Y-86650000D01*
X94203162Y-86414683D01*
X94064090Y-86198559D01*
X93851890Y-86053569D01*
X93600000Y-86002560D01*
X91900000Y-86002560D01*
X91664683Y-86046838D01*
X91448559Y-86185910D01*
X91303569Y-86398110D01*
X91281699Y-86506107D01*
X90976924Y-86228355D01*
X90566890Y-86058524D01*
X90337000Y-86179845D01*
X90083000Y-86179845D01*
X89853110Y-86058524D01*
X89443076Y-86228355D01*
X89014817Y-86618642D01*
X88768514Y-87143108D01*
X87685000Y-87143108D01*
X87685000Y-87067467D01*
X87797497Y-86501906D01*
X88010138Y-86183665D01*
X88314850Y-85922483D01*
X88501906Y-85797497D01*
X89067466Y-85685000D01*
X135432533Y-85685000D01*
X135998094Y-85797497D01*
X135998094Y-85797497D01*
G37*
X135998094Y-85797497D02*
X136179687Y-85918833D01*
X136581167Y-86320313D01*
X136702503Y-86501906D01*
X136815000Y-87067466D01*
X136815000Y-98216974D01*
X136709698Y-98111673D01*
X136476309Y-98015000D01*
X135785750Y-98015000D01*
X135627000Y-98173750D01*
X135627000Y-99373000D01*
X135647000Y-99373000D01*
X135647000Y-99627000D01*
X135627000Y-99627000D01*
X135627000Y-99647000D01*
X135373000Y-99647000D01*
X135373000Y-99627000D01*
X134173750Y-99627000D01*
X134015000Y-99785750D01*
X134015000Y-100476310D01*
X134111673Y-100709699D01*
X134290302Y-100888327D01*
X134464777Y-100960597D01*
X134420853Y-100989946D01*
X134098946Y-101471715D01*
X133985907Y-102040000D01*
X134098946Y-102608285D01*
X134420853Y-103090054D01*
X134750026Y-103310000D01*
X134420853Y-103529946D01*
X134098946Y-104011715D01*
X133985907Y-104580000D01*
X134098946Y-105148285D01*
X134420853Y-105630054D01*
X134902622Y-105951961D01*
X135470907Y-106065000D01*
X135529093Y-106065000D01*
X136097378Y-105951961D01*
X136579147Y-105630054D01*
X136815000Y-105277074D01*
X136815000Y-111977577D01*
X136610054Y-111670853D01*
X136128285Y-111348946D01*
X135560000Y-111235907D01*
X134991715Y-111348946D01*
X134509946Y-111670853D01*
X134290000Y-112000026D01*
X134070054Y-111670853D01*
X133588285Y-111348946D01*
X133020000Y-111235907D01*
X132653592Y-111308790D01*
X130760000Y-109415198D01*
X130760000Y-106162463D01*
X130792192Y-106130327D01*
X130934838Y-105786799D01*
X130935162Y-105414833D01*
X130793117Y-105071057D01*
X130530327Y-104807808D01*
X130186799Y-104665162D01*
X129814833Y-104664838D01*
X129471057Y-104806883D01*
X129207808Y-105069673D01*
X129065162Y-105413201D01*
X129064838Y-105785167D01*
X129206883Y-106128943D01*
X129240000Y-106162118D01*
X129240000Y-109730000D01*
X129297852Y-110020839D01*
X129462599Y-110267401D01*
X130439217Y-111244019D01*
X129911715Y-111348946D01*
X129429946Y-111670853D01*
X129210000Y-112000026D01*
X128990054Y-111670853D01*
X128508285Y-111348946D01*
X127940000Y-111235907D01*
X127371715Y-111348946D01*
X126889946Y-111670853D01*
X126670000Y-112000026D01*
X126450054Y-111670853D01*
X125968285Y-111348946D01*
X125400000Y-111235907D01*
X124831715Y-111348946D01*
X124349946Y-111670853D01*
X124130000Y-112000026D01*
X123910054Y-111670853D01*
X123428285Y-111348946D01*
X122860000Y-111235907D01*
X122291715Y-111348946D01*
X121809946Y-111670853D01*
X121590000Y-112000026D01*
X121370054Y-111670853D01*
X120888285Y-111348946D01*
X120320000Y-111235907D01*
X119751715Y-111348946D01*
X119269946Y-111670853D01*
X119050000Y-112000026D01*
X118830054Y-111670853D01*
X118348285Y-111348946D01*
X117780000Y-111235907D01*
X117211715Y-111348946D01*
X116729946Y-111670853D01*
X116510000Y-112000026D01*
X116290054Y-111670853D01*
X115808285Y-111348946D01*
X115240000Y-111235907D01*
X114671715Y-111348946D01*
X114189946Y-111670853D01*
X113970000Y-112000026D01*
X113767087Y-111696345D01*
X113844587Y-111509706D01*
X113880008Y-111524414D01*
X114251974Y-111524738D01*
X114595750Y-111382693D01*
X114663229Y-111315331D01*
X114781910Y-111291724D01*
X115028472Y-111126977D01*
X115479062Y-110676387D01*
X115493236Y-110682272D01*
X115865202Y-110682596D01*
X116208978Y-110540551D01*
X116242153Y-110507434D01*
X117252566Y-110507434D01*
X117543405Y-110449582D01*
X117789967Y-110284835D01*
X122114802Y-105960000D01*
X123885198Y-105960000D01*
X125064878Y-107139680D01*
X125064838Y-107185167D01*
X125206883Y-107528943D01*
X125469673Y-107792192D01*
X125813201Y-107934838D01*
X126185167Y-107935162D01*
X126528943Y-107793117D01*
X126792192Y-107530327D01*
X126934838Y-107186799D01*
X126935162Y-106814833D01*
X126793117Y-106471057D01*
X126530327Y-106207808D01*
X126186799Y-106065162D01*
X126139923Y-106065121D01*
X124737401Y-104662599D01*
X124490839Y-104497852D01*
X124200000Y-104440000D01*
X122560000Y-104440000D01*
X122560000Y-99762463D01*
X122592192Y-99730327D01*
X122734838Y-99386799D01*
X122735162Y-99014833D01*
X122712506Y-98960000D01*
X130037537Y-98960000D01*
X130069673Y-98992192D01*
X130413201Y-99134838D01*
X130785167Y-99135162D01*
X131128943Y-98993117D01*
X131392192Y-98730327D01*
X131477995Y-98523690D01*
X134015000Y-98523690D01*
X134015000Y-99214250D01*
X134173750Y-99373000D01*
X135373000Y-99373000D01*
X135373000Y-98173750D01*
X135214250Y-98015000D01*
X134523691Y-98015000D01*
X134290302Y-98111673D01*
X134111673Y-98290301D01*
X134015000Y-98523690D01*
X131477995Y-98523690D01*
X131534838Y-98386799D01*
X131535162Y-98014833D01*
X131393117Y-97671057D01*
X131130327Y-97407808D01*
X130786799Y-97265162D01*
X130414833Y-97264838D01*
X130071057Y-97406883D01*
X130037882Y-97440000D01*
X118962463Y-97440000D01*
X118930327Y-97407808D01*
X118586799Y-97265162D01*
X118214833Y-97264838D01*
X117871057Y-97406883D01*
X117607808Y-97669673D01*
X117465162Y-98013201D01*
X117465121Y-98060077D01*
X115402701Y-100122497D01*
X112049331Y-96769127D01*
X111802769Y-96604380D01*
X111511930Y-96546528D01*
X111289273Y-96546528D01*
X111334838Y-96436797D01*
X111335162Y-96064831D01*
X111193117Y-95721055D01*
X110930327Y-95457806D01*
X110824552Y-95413884D01*
X110693351Y-95096353D01*
X110430561Y-94833104D01*
X110087033Y-94690458D01*
X109715067Y-94690134D01*
X109371291Y-94832179D01*
X109108042Y-95094969D01*
X108965396Y-95438497D01*
X108965355Y-95485373D01*
X108769686Y-95681042D01*
X108215449Y-95681042D01*
X108183313Y-95648850D01*
X107839785Y-95506204D01*
X107467819Y-95505880D01*
X107124043Y-95647925D01*
X106860794Y-95910715D01*
X106718148Y-96254243D01*
X106718049Y-96368249D01*
X106412399Y-96062599D01*
X106165837Y-95897852D01*
X105874998Y-95840000D01*
X102162463Y-95840000D01*
X102130327Y-95807808D01*
X101786799Y-95665162D01*
X101414833Y-95664838D01*
X101071057Y-95806883D01*
X100807808Y-96069673D01*
X100665162Y-96413201D01*
X100664838Y-96785167D01*
X100806883Y-97128943D01*
X101069673Y-97392192D01*
X101254877Y-97469096D01*
X101372577Y-97753953D01*
X101635367Y-98017202D01*
X101978895Y-98159848D01*
X102025771Y-98159889D01*
X102879263Y-99013381D01*
X100983889Y-100908755D01*
X100938402Y-100908715D01*
X100594626Y-101050760D01*
X100331377Y-101313550D01*
X100188731Y-101657078D01*
X100188407Y-102029044D01*
X100330452Y-102372820D01*
X100593242Y-102636069D01*
X100936770Y-102778715D01*
X101308736Y-102779039D01*
X101652512Y-102636994D01*
X101915761Y-102374204D01*
X102058407Y-102030676D01*
X102058448Y-101983800D01*
X104064259Y-99977989D01*
X108035533Y-99977989D01*
X109586987Y-101529443D01*
X109833549Y-101694190D01*
X110124388Y-101752042D01*
X110436461Y-101752042D01*
X110468597Y-101784234D01*
X110812125Y-101926880D01*
X110846912Y-101926910D01*
X110865929Y-101972935D01*
X111128719Y-102236184D01*
X111472247Y-102378830D01*
X111519123Y-102378871D01*
X114834923Y-105694671D01*
X114834870Y-105755199D01*
X114976915Y-106098975D01*
X115013518Y-106135642D01*
X111611542Y-109537618D01*
X111446795Y-109784180D01*
X111388943Y-110075019D01*
X111388943Y-110787707D01*
X111384699Y-110791943D01*
X108473763Y-107881007D01*
X108529928Y-107745749D01*
X108530252Y-107373783D01*
X108388207Y-107030007D01*
X108125417Y-106766758D01*
X107781889Y-106624112D01*
X107409923Y-106623788D01*
X107066147Y-106765833D01*
X106802898Y-107028623D01*
X106660252Y-107372151D01*
X106659928Y-107744117D01*
X106801973Y-108087893D01*
X106846003Y-108132000D01*
X106892942Y-108367975D01*
X107057689Y-108614537D01*
X109758852Y-111315700D01*
X109591715Y-111348946D01*
X109109946Y-111670853D01*
X108882298Y-112011553D01*
X108815183Y-111868642D01*
X108386924Y-111478355D01*
X107976890Y-111308524D01*
X107747000Y-111429845D01*
X107747000Y-112623000D01*
X107767000Y-112623000D01*
X107767000Y-112877000D01*
X107747000Y-112877000D01*
X107747000Y-114070155D01*
X107976890Y-114191476D01*
X108386924Y-114021645D01*
X108815183Y-113631358D01*
X108882298Y-113488447D01*
X109109946Y-113829147D01*
X109591715Y-114151054D01*
X110160000Y-114264093D01*
X110728285Y-114151054D01*
X111210054Y-113829147D01*
X111430000Y-113499974D01*
X111649946Y-113829147D01*
X112131715Y-114151054D01*
X112700000Y-114264093D01*
X113268285Y-114151054D01*
X113750054Y-113829147D01*
X113970000Y-113499974D01*
X114189946Y-113829147D01*
X114671715Y-114151054D01*
X115240000Y-114264093D01*
X115808285Y-114151054D01*
X116290054Y-113829147D01*
X116510000Y-113499974D01*
X116729946Y-113829147D01*
X117211715Y-114151054D01*
X117780000Y-114264093D01*
X118348285Y-114151054D01*
X118830054Y-113829147D01*
X119050000Y-113499974D01*
X119269946Y-113829147D01*
X119751715Y-114151054D01*
X120320000Y-114264093D01*
X120888285Y-114151054D01*
X121370054Y-113829147D01*
X121590000Y-113499974D01*
X121809946Y-113829147D01*
X122291715Y-114151054D01*
X122860000Y-114264093D01*
X123428285Y-114151054D01*
X123910054Y-113829147D01*
X124130000Y-113499974D01*
X124349946Y-113829147D01*
X124831715Y-114151054D01*
X125400000Y-114264093D01*
X125968285Y-114151054D01*
X126450054Y-113829147D01*
X126670000Y-113499974D01*
X126889946Y-113829147D01*
X127371715Y-114151054D01*
X127940000Y-114264093D01*
X128508285Y-114151054D01*
X128990054Y-113829147D01*
X129210000Y-113499974D01*
X129429946Y-113829147D01*
X129911715Y-114151054D01*
X130480000Y-114264093D01*
X131048285Y-114151054D01*
X131530054Y-113829147D01*
X131750000Y-113499974D01*
X131969946Y-113829147D01*
X132451715Y-114151054D01*
X133020000Y-114264093D01*
X133588285Y-114151054D01*
X134070054Y-113829147D01*
X134290000Y-113499974D01*
X134509946Y-113829147D01*
X134991715Y-114151054D01*
X135498593Y-114251878D01*
X135424951Y-114315000D01*
X89067466Y-114315000D01*
X88501906Y-114202503D01*
X88079643Y-113920357D01*
X87797497Y-113498094D01*
X87685000Y-112932533D01*
X87685000Y-111900000D01*
X98502560Y-111900000D01*
X98502560Y-113600000D01*
X98546838Y-113835317D01*
X98685910Y-114051441D01*
X98898110Y-114196431D01*
X99150000Y-114247440D01*
X100850000Y-114247440D01*
X101085317Y-114203162D01*
X101301441Y-114064090D01*
X101446431Y-113851890D01*
X101460086Y-113784459D01*
X101489946Y-113829147D01*
X101971715Y-114151054D01*
X102540000Y-114264093D01*
X103108285Y-114151054D01*
X103590054Y-113829147D01*
X103810000Y-113499974D01*
X104029946Y-113829147D01*
X104511715Y-114151054D01*
X105080000Y-114264093D01*
X105648285Y-114151054D01*
X106130054Y-113829147D01*
X106357702Y-113488447D01*
X106424817Y-113631358D01*
X106853076Y-114021645D01*
X107263110Y-114191476D01*
X107493000Y-114070155D01*
X107493000Y-112877000D01*
X107473000Y-112877000D01*
X107473000Y-112623000D01*
X107493000Y-112623000D01*
X107493000Y-111429845D01*
X107263110Y-111308524D01*
X106853076Y-111478355D01*
X106424817Y-111868642D01*
X106357702Y-112011553D01*
X106130054Y-111670853D01*
X105774538Y-111433306D01*
X105937401Y-111270443D01*
X106102148Y-111023882D01*
X106160000Y-110733042D01*
X106160000Y-103162463D01*
X106192192Y-103130327D01*
X106334838Y-102786799D01*
X106335162Y-102414833D01*
X106193117Y-102071057D01*
X105930327Y-101807808D01*
X105586799Y-101665162D01*
X105214833Y-101664838D01*
X104871057Y-101806883D01*
X104741457Y-101936257D01*
X104730712Y-101925493D01*
X104387184Y-101782847D01*
X104015218Y-101782523D01*
X103671442Y-101924568D01*
X103408193Y-102187358D01*
X103265547Y-102530886D01*
X103265223Y-102902852D01*
X103407268Y-103246628D01*
X103670058Y-103509877D01*
X103922233Y-103614590D01*
X103922233Y-110246562D01*
X103478907Y-110689888D01*
X103433420Y-110689848D01*
X103089644Y-110831893D01*
X102826395Y-111094683D01*
X102750377Y-111277754D01*
X102540000Y-111235907D01*
X101971715Y-111348946D01*
X101489946Y-111670853D01*
X101462150Y-111712452D01*
X101453162Y-111664683D01*
X101314090Y-111448559D01*
X101101890Y-111303569D01*
X100850000Y-111252560D01*
X99150000Y-111252560D01*
X98914683Y-111296838D01*
X98698559Y-111435910D01*
X98553569Y-111648110D01*
X98502560Y-111900000D01*
X87685000Y-111900000D01*
X87685000Y-102777074D01*
X87920853Y-103130054D01*
X88402622Y-103451961D01*
X88970907Y-103565000D01*
X89029093Y-103565000D01*
X89597378Y-103451961D01*
X90079147Y-103130054D01*
X90401054Y-102648285D01*
X90514093Y-102080000D01*
X90401054Y-101511715D01*
X90079147Y-101029946D01*
X89749974Y-100810000D01*
X90079147Y-100590054D01*
X90401054Y-100108285D01*
X90514093Y-99540000D01*
X90401054Y-98971715D01*
X90079147Y-98489946D01*
X89749974Y-98270000D01*
X90079147Y-98050054D01*
X90401054Y-97568285D01*
X90514093Y-97000000D01*
X90401054Y-96431715D01*
X90079147Y-95949946D01*
X90037548Y-95922150D01*
X90085317Y-95913162D01*
X90301441Y-95774090D01*
X90446431Y-95561890D01*
X90497440Y-95310000D01*
X90497440Y-93610000D01*
X90453162Y-93374683D01*
X90314090Y-93158559D01*
X90101890Y-93013569D01*
X89850000Y-92962560D01*
X88150000Y-92962560D01*
X87914683Y-93006838D01*
X87698559Y-93145910D01*
X87685000Y-93165754D01*
X87685000Y-87856892D01*
X88768514Y-87856892D01*
X89014817Y-88381358D01*
X89443076Y-88771645D01*
X89853110Y-88941476D01*
X90083000Y-88820155D01*
X90083000Y-87627000D01*
X88889181Y-87627000D01*
X88768514Y-87856892D01*
X87685000Y-87856892D01*
X87685000Y-87143108D01*
X88768514Y-87143108D01*
X88889181Y-87373000D01*
X90083000Y-87373000D01*
X90083000Y-86179845D01*
X90337000Y-86179845D01*
X90337000Y-87373000D01*
X90357000Y-87373000D01*
X90357000Y-87627000D01*
X90337000Y-87627000D01*
X90337000Y-88820155D01*
X90566890Y-88941476D01*
X90976924Y-88771645D01*
X91279937Y-88495499D01*
X91296838Y-88585317D01*
X91435910Y-88801441D01*
X91648110Y-88946431D01*
X91900000Y-88997440D01*
X93600000Y-88997440D01*
X93835317Y-88953162D01*
X94051441Y-88814090D01*
X94196431Y-88601890D01*
X94247440Y-88350000D01*
X94247440Y-86650000D01*
X98002560Y-86650000D01*
X98002560Y-88350000D01*
X98046838Y-88585317D01*
X98185910Y-88801441D01*
X98398110Y-88946431D01*
X98650000Y-88997440D01*
X100350000Y-88997440D01*
X100585317Y-88953162D01*
X100801441Y-88814090D01*
X100946431Y-88601890D01*
X100968301Y-88493893D01*
X101273076Y-88771645D01*
X101683110Y-88941476D01*
X101913000Y-88820155D01*
X101913000Y-87627000D01*
X101893000Y-87627000D01*
X101893000Y-87373000D01*
X101913000Y-87373000D01*
X101913000Y-86179845D01*
X102167000Y-86179845D01*
X102167000Y-87373000D01*
X102187000Y-87373000D01*
X102187000Y-87627000D01*
X102167000Y-87627000D01*
X102167000Y-88820155D01*
X102396890Y-88941476D01*
X102806924Y-88771645D01*
X103235183Y-88381358D01*
X103302298Y-88238447D01*
X103529946Y-88579147D01*
X104011715Y-88901054D01*
X104580000Y-89014093D01*
X105148285Y-88901054D01*
X105630054Y-88579147D01*
X105850000Y-88249974D01*
X106069946Y-88579147D01*
X106551715Y-88901054D01*
X107120000Y-89014093D01*
X107688285Y-88901054D01*
X108170054Y-88579147D01*
X108390000Y-88249974D01*
X108609946Y-88579147D01*
X109091715Y-88901054D01*
X109660000Y-89014093D01*
X110101236Y-88926326D01*
X110065162Y-89013201D01*
X110064838Y-89385167D01*
X110206883Y-89728943D01*
X110469673Y-89992192D01*
X110813201Y-90134838D01*
X111185167Y-90135162D01*
X111217012Y-90122004D01*
X111268988Y-90247795D01*
X111302105Y-90280970D01*
X111302105Y-91062105D01*
X111359957Y-91352944D01*
X111524704Y-91599506D01*
X115464878Y-95539680D01*
X115464838Y-95585167D01*
X115606883Y-95928943D01*
X115869673Y-96192192D01*
X116213201Y-96334838D01*
X116585167Y-96335162D01*
X116928943Y-96193117D01*
X117192192Y-95930327D01*
X117334838Y-95586799D01*
X117335162Y-95214833D01*
X117193117Y-94871057D01*
X116930327Y-94607808D01*
X116928122Y-94606892D01*
X128518514Y-94606892D01*
X128764817Y-95131358D01*
X129193076Y-95521645D01*
X129603110Y-95691476D01*
X129833000Y-95570155D01*
X129833000Y-94377000D01*
X128639181Y-94377000D01*
X128518514Y-94606892D01*
X116928122Y-94606892D01*
X116586799Y-94465162D01*
X116539923Y-94465121D01*
X112822105Y-90747303D01*
X112822105Y-90281315D01*
X112854297Y-90249179D01*
X112950821Y-90016723D01*
X115181499Y-92247401D01*
X115428061Y-92412148D01*
X115718900Y-92470000D01*
X128696699Y-92470000D01*
X128909946Y-92789147D01*
X129193101Y-92978345D01*
X129193076Y-92978355D01*
X128764817Y-93368642D01*
X128518514Y-93893108D01*
X128639181Y-94123000D01*
X129833000Y-94123000D01*
X129833000Y-94103000D01*
X130087000Y-94103000D01*
X130087000Y-94123000D01*
X130107000Y-94123000D01*
X130107000Y-94377000D01*
X130087000Y-94377000D01*
X130087000Y-95570155D01*
X130316890Y-95691476D01*
X130726924Y-95521645D01*
X131155183Y-95131358D01*
X131222298Y-94988447D01*
X131449946Y-95329147D01*
X131931715Y-95651054D01*
X132500000Y-95764093D01*
X133068285Y-95651054D01*
X133550054Y-95329147D01*
X133770000Y-94999974D01*
X133989946Y-95329147D01*
X134471715Y-95651054D01*
X135040000Y-95764093D01*
X135608285Y-95651054D01*
X136090054Y-95329147D01*
X136411961Y-94847378D01*
X136525000Y-94279093D01*
X136525000Y-94220907D01*
X136411961Y-93652622D01*
X136090054Y-93170853D01*
X136088821Y-93170029D01*
X136125317Y-93163162D01*
X136341441Y-93024090D01*
X136486431Y-92811890D01*
X136537440Y-92560000D01*
X136537440Y-90860000D01*
X136493162Y-90624683D01*
X136354090Y-90408559D01*
X136141890Y-90263569D01*
X135890000Y-90212560D01*
X134190000Y-90212560D01*
X133954683Y-90256838D01*
X133738559Y-90395910D01*
X133593569Y-90608110D01*
X133579914Y-90675541D01*
X133550054Y-90630853D01*
X133068285Y-90308946D01*
X132500000Y-90195907D01*
X131931715Y-90308946D01*
X131449946Y-90630853D01*
X131230000Y-90960026D01*
X131010054Y-90630853D01*
X130528285Y-90308946D01*
X129960000Y-90195907D01*
X129391715Y-90308946D01*
X128909946Y-90630853D01*
X128696699Y-90950000D01*
X124572135Y-90950000D01*
X124792192Y-90730327D01*
X124934838Y-90386799D01*
X124935162Y-90014833D01*
X124793117Y-89671057D01*
X124530327Y-89407808D01*
X124186799Y-89265162D01*
X123814833Y-89264838D01*
X123471057Y-89406883D01*
X123437882Y-89440000D01*
X115839806Y-89440000D01*
X115302092Y-88902286D01*
X115308285Y-88901054D01*
X115790054Y-88579147D01*
X116010000Y-88249974D01*
X116229946Y-88579147D01*
X116711715Y-88901054D01*
X117280000Y-89014093D01*
X117848285Y-88901054D01*
X118330054Y-88579147D01*
X118550000Y-88249974D01*
X118769946Y-88579147D01*
X119251715Y-88901054D01*
X119820000Y-89014093D01*
X120388285Y-88901054D01*
X120870054Y-88579147D01*
X121090000Y-88249974D01*
X121309946Y-88579147D01*
X121791715Y-88901054D01*
X122360000Y-89014093D01*
X122928285Y-88901054D01*
X123410054Y-88579147D01*
X123630000Y-88249974D01*
X123849946Y-88579147D01*
X124331715Y-88901054D01*
X124900000Y-89014093D01*
X125468285Y-88901054D01*
X125950054Y-88579147D01*
X126170000Y-88249974D01*
X126389946Y-88579147D01*
X126871715Y-88901054D01*
X127440000Y-89014093D01*
X128008285Y-88901054D01*
X128490054Y-88579147D01*
X128710000Y-88249974D01*
X128929946Y-88579147D01*
X129411715Y-88901054D01*
X129980000Y-89014093D01*
X130548285Y-88901054D01*
X131030054Y-88579147D01*
X131250000Y-88249974D01*
X131469946Y-88579147D01*
X131951715Y-88901054D01*
X132520000Y-89014093D01*
X133088285Y-88901054D01*
X133570054Y-88579147D01*
X133790000Y-88249974D01*
X134009946Y-88579147D01*
X134491715Y-88901054D01*
X135060000Y-89014093D01*
X135628285Y-88901054D01*
X136110054Y-88579147D01*
X136431961Y-88097378D01*
X136545000Y-87529093D01*
X136545000Y-87470907D01*
X136431961Y-86902622D01*
X136110054Y-86420853D01*
X135628285Y-86098946D01*
X135060000Y-85985907D01*
X134491715Y-86098946D01*
X134009946Y-86420853D01*
X133790000Y-86750026D01*
X133570054Y-86420853D01*
X133088285Y-86098946D01*
X132520000Y-85985907D01*
X131951715Y-86098946D01*
X131469946Y-86420853D01*
X131250000Y-86750026D01*
X131030054Y-86420853D01*
X130548285Y-86098946D01*
X129980000Y-85985907D01*
X129411715Y-86098946D01*
X128929946Y-86420853D01*
X128710000Y-86750026D01*
X128490054Y-86420853D01*
X128008285Y-86098946D01*
X127440000Y-85985907D01*
X126871715Y-86098946D01*
X126389946Y-86420853D01*
X126170000Y-86750026D01*
X125950054Y-86420853D01*
X125468285Y-86098946D01*
X124900000Y-85985907D01*
X124331715Y-86098946D01*
X123849946Y-86420853D01*
X123630000Y-86750026D01*
X123410054Y-86420853D01*
X122928285Y-86098946D01*
X122360000Y-85985907D01*
X121791715Y-86098946D01*
X121309946Y-86420853D01*
X121090000Y-86750026D01*
X120870054Y-86420853D01*
X120388285Y-86098946D01*
X119820000Y-85985907D01*
X119251715Y-86098946D01*
X118769946Y-86420853D01*
X118550000Y-86750026D01*
X118330054Y-86420853D01*
X117848285Y-86098946D01*
X117280000Y-85985907D01*
X116711715Y-86098946D01*
X116229946Y-86420853D01*
X116010000Y-86750026D01*
X115790054Y-86420853D01*
X115308285Y-86098946D01*
X114740000Y-85985907D01*
X114171715Y-86098946D01*
X113689946Y-86420853D01*
X113470000Y-86750026D01*
X113250054Y-86420853D01*
X112768285Y-86098946D01*
X112200000Y-85985907D01*
X111631715Y-86098946D01*
X111149946Y-86420853D01*
X110930000Y-86750026D01*
X110710054Y-86420853D01*
X110228285Y-86098946D01*
X109660000Y-85985907D01*
X109091715Y-86098946D01*
X108609946Y-86420853D01*
X108390000Y-86750026D01*
X108170054Y-86420853D01*
X107688285Y-86098946D01*
X107120000Y-85985907D01*
X106551715Y-86098946D01*
X106069946Y-86420853D01*
X105850000Y-86750026D01*
X105630054Y-86420853D01*
X105148285Y-86098946D01*
X104580000Y-85985907D01*
X104011715Y-86098946D01*
X103529946Y-86420853D01*
X103302298Y-86761553D01*
X103235183Y-86618642D01*
X102806924Y-86228355D01*
X102396890Y-86058524D01*
X102167000Y-86179845D01*
X101913000Y-86179845D01*
X101683110Y-86058524D01*
X101273076Y-86228355D01*
X100970063Y-86504501D01*
X100953162Y-86414683D01*
X100814090Y-86198559D01*
X100601890Y-86053569D01*
X100350000Y-86002560D01*
X98650000Y-86002560D01*
X98414683Y-86046838D01*
X98198559Y-86185910D01*
X98053569Y-86398110D01*
X98002560Y-86650000D01*
X94247440Y-86650000D01*
X94203162Y-86414683D01*
X94064090Y-86198559D01*
X93851890Y-86053569D01*
X93600000Y-86002560D01*
X91900000Y-86002560D01*
X91664683Y-86046838D01*
X91448559Y-86185910D01*
X91303569Y-86398110D01*
X91281699Y-86506107D01*
X90976924Y-86228355D01*
X90566890Y-86058524D01*
X90337000Y-86179845D01*
X90083000Y-86179845D01*
X89853110Y-86058524D01*
X89443076Y-86228355D01*
X89014817Y-86618642D01*
X88768514Y-87143108D01*
X87685000Y-87143108D01*
X87685000Y-87067467D01*
X87797497Y-86501906D01*
X88010138Y-86183665D01*
X88314850Y-85922483D01*
X88501906Y-85797497D01*
X89067466Y-85685000D01*
X135432533Y-85685000D01*
X135998094Y-85797497D01*
M02*
