G04 #@! TF.FileFunction,Soldermask,Top*
%FSLAX46Y46*%
G04 Gerber Fmt 4.6, Leading zero omitted, Abs format (unit mm)*
G04 Created by KiCad (PCBNEW 4.0.7) date 01/27/18 13:27:31*
%MOMM*%
%LPD*%
G01*
G04 APERTURE LIST*
%ADD10C,0.100000*%
%ADD11R,1.000000X1.250000*%
%ADD12R,1.000000X3.150000*%
%ADD13R,0.650000X0.700000*%
%ADD14R,0.750000X0.800000*%
%ADD15R,0.800000X0.750000*%
%ADD16R,1.200000X1.200000*%
%ADD17R,0.500000X0.900000*%
%ADD18R,1.700000X1.700000*%
%ADD19O,1.700000X1.700000*%
%ADD20R,0.650000X1.060000*%
%ADD21R,1.250000X1.000000*%
%ADD22R,0.750000X0.850000*%
%ADD23R,1.500000X0.450000*%
%ADD24R,0.360000X0.210000*%
G04 APERTURE END LIST*
D10*
D11*
X99000000Y-103500000D03*
X97000000Y-103500000D03*
D12*
X96810000Y-106975000D03*
X96810000Y-112025000D03*
X94270000Y-106975000D03*
X94270000Y-112025000D03*
X91730000Y-106975000D03*
X91730000Y-112025000D03*
X89190000Y-106975000D03*
X89190000Y-112025000D03*
D13*
X108250000Y-89800000D03*
X111200000Y-89800000D03*
X108250000Y-91700000D03*
X111200000Y-91700000D03*
D14*
X114000000Y-106500000D03*
X114000000Y-108000000D03*
X109000000Y-108000000D03*
X109000000Y-106500000D03*
D15*
X110100000Y-101400000D03*
X108600000Y-101400000D03*
X110100000Y-102800000D03*
X108600000Y-102800000D03*
X118900000Y-95600000D03*
X117400000Y-95600000D03*
X93250000Y-103500000D03*
X91750000Y-103500000D03*
D14*
X102250000Y-99750000D03*
X102250000Y-98250000D03*
D15*
X103250000Y-95500000D03*
X101750000Y-95500000D03*
D16*
X124900000Y-96800000D03*
X127100000Y-96800000D03*
X109800000Y-93600000D03*
X107600000Y-93600000D03*
X132000000Y-103000000D03*
X129800000Y-103000000D03*
D17*
X108000000Y-95500000D03*
X109500000Y-95500000D03*
X109100000Y-97200000D03*
X110600000Y-97200000D03*
X121700000Y-97000000D03*
X123200000Y-97000000D03*
X130100000Y-100000000D03*
X131600000Y-100000000D03*
D15*
X103000000Y-107750000D03*
X104500000Y-107750000D03*
D18*
X135500000Y-99500000D03*
D19*
X135500000Y-102040000D03*
X135500000Y-104580000D03*
D20*
X101550000Y-93950000D03*
X102500000Y-93950000D03*
X103450000Y-93950000D03*
X103450000Y-91750000D03*
X101550000Y-91750000D03*
X102500000Y-91750000D03*
D18*
X135040000Y-91710000D03*
D19*
X135040000Y-94250000D03*
X132500000Y-91710000D03*
X132500000Y-94250000D03*
X129960000Y-91710000D03*
X129960000Y-94250000D03*
D11*
X108000000Y-99800000D03*
X110000000Y-99800000D03*
D15*
X96750000Y-90250000D03*
X95250000Y-90250000D03*
D11*
X95000000Y-92000000D03*
X97000000Y-92000000D03*
D21*
X105200000Y-98200000D03*
X105200000Y-100200000D03*
D15*
X104500000Y-104750000D03*
X103000000Y-104750000D03*
X103250000Y-90000000D03*
X101750000Y-90000000D03*
D18*
X100000000Y-112750000D03*
D19*
X102540000Y-112750000D03*
X105080000Y-112750000D03*
X107620000Y-112750000D03*
X110160000Y-112750000D03*
X112700000Y-112750000D03*
X115240000Y-112750000D03*
X117780000Y-112750000D03*
X120320000Y-112750000D03*
X122860000Y-112750000D03*
X125400000Y-112750000D03*
X127940000Y-112750000D03*
X130480000Y-112750000D03*
X133020000Y-112750000D03*
X135560000Y-112750000D03*
D18*
X99500000Y-87500000D03*
D19*
X102040000Y-87500000D03*
X104580000Y-87500000D03*
X107120000Y-87500000D03*
X109660000Y-87500000D03*
X112200000Y-87500000D03*
X114740000Y-87500000D03*
X117280000Y-87500000D03*
X119820000Y-87500000D03*
X122360000Y-87500000D03*
X124900000Y-87500000D03*
X127440000Y-87500000D03*
X129980000Y-87500000D03*
X132520000Y-87500000D03*
X135060000Y-87500000D03*
D18*
X92750000Y-87500000D03*
D19*
X90210000Y-87500000D03*
D18*
X89000000Y-94460000D03*
D19*
X89000000Y-97000000D03*
X89000000Y-99540000D03*
X89000000Y-102080000D03*
D22*
X112425000Y-108175000D03*
X111075000Y-108175000D03*
X112425000Y-106325000D03*
X111075000Y-106325000D03*
D10*
G36*
X111656408Y-100295495D02*
X111479631Y-100118718D01*
X111974606Y-99623743D01*
X112151383Y-99800520D01*
X111656408Y-100295495D01*
X111656408Y-100295495D01*
G37*
G36*
X112009961Y-100649049D02*
X111833184Y-100472272D01*
X112328159Y-99977297D01*
X112504936Y-100154074D01*
X112009961Y-100649049D01*
X112009961Y-100649049D01*
G37*
G36*
X112363515Y-101002602D02*
X112186738Y-100825825D01*
X112681713Y-100330850D01*
X112858490Y-100507627D01*
X112363515Y-101002602D01*
X112363515Y-101002602D01*
G37*
G36*
X112717068Y-101356156D02*
X112540291Y-101179379D01*
X113035266Y-100684404D01*
X113212043Y-100861181D01*
X112717068Y-101356156D01*
X112717068Y-101356156D01*
G37*
G36*
X113070621Y-101709709D02*
X112893844Y-101532932D01*
X113388819Y-101037957D01*
X113565596Y-101214734D01*
X113070621Y-101709709D01*
X113070621Y-101709709D01*
G37*
G36*
X113424175Y-102063262D02*
X113247398Y-101886485D01*
X113742373Y-101391510D01*
X113919150Y-101568287D01*
X113424175Y-102063262D01*
X113424175Y-102063262D01*
G37*
G36*
X113777728Y-102416816D02*
X113600951Y-102240039D01*
X114095926Y-101745064D01*
X114272703Y-101921841D01*
X113777728Y-102416816D01*
X113777728Y-102416816D01*
G37*
G36*
X114131282Y-102770369D02*
X113954505Y-102593592D01*
X114449480Y-102098617D01*
X114626257Y-102275394D01*
X114131282Y-102770369D01*
X114131282Y-102770369D01*
G37*
G36*
X115545495Y-102593592D02*
X115368718Y-102770369D01*
X114873743Y-102275394D01*
X115050520Y-102098617D01*
X115545495Y-102593592D01*
X115545495Y-102593592D01*
G37*
G36*
X115899049Y-102240039D02*
X115722272Y-102416816D01*
X115227297Y-101921841D01*
X115404074Y-101745064D01*
X115899049Y-102240039D01*
X115899049Y-102240039D01*
G37*
G36*
X116252602Y-101886485D02*
X116075825Y-102063262D01*
X115580850Y-101568287D01*
X115757627Y-101391510D01*
X116252602Y-101886485D01*
X116252602Y-101886485D01*
G37*
G36*
X116606156Y-101532932D02*
X116429379Y-101709709D01*
X115934404Y-101214734D01*
X116111181Y-101037957D01*
X116606156Y-101532932D01*
X116606156Y-101532932D01*
G37*
G36*
X116959709Y-101179379D02*
X116782932Y-101356156D01*
X116287957Y-100861181D01*
X116464734Y-100684404D01*
X116959709Y-101179379D01*
X116959709Y-101179379D01*
G37*
G36*
X117313262Y-100825825D02*
X117136485Y-101002602D01*
X116641510Y-100507627D01*
X116818287Y-100330850D01*
X117313262Y-100825825D01*
X117313262Y-100825825D01*
G37*
G36*
X117666816Y-100472272D02*
X117490039Y-100649049D01*
X116995064Y-100154074D01*
X117171841Y-99977297D01*
X117666816Y-100472272D01*
X117666816Y-100472272D01*
G37*
G36*
X118020369Y-100118718D02*
X117843592Y-100295495D01*
X117348617Y-99800520D01*
X117525394Y-99623743D01*
X118020369Y-100118718D01*
X118020369Y-100118718D01*
G37*
G36*
X117525394Y-99376257D02*
X117348617Y-99199480D01*
X117843592Y-98704505D01*
X118020369Y-98881282D01*
X117525394Y-99376257D01*
X117525394Y-99376257D01*
G37*
G36*
X117171841Y-99022703D02*
X116995064Y-98845926D01*
X117490039Y-98350951D01*
X117666816Y-98527728D01*
X117171841Y-99022703D01*
X117171841Y-99022703D01*
G37*
G36*
X116818287Y-98669150D02*
X116641510Y-98492373D01*
X117136485Y-97997398D01*
X117313262Y-98174175D01*
X116818287Y-98669150D01*
X116818287Y-98669150D01*
G37*
G36*
X116464734Y-98315596D02*
X116287957Y-98138819D01*
X116782932Y-97643844D01*
X116959709Y-97820621D01*
X116464734Y-98315596D01*
X116464734Y-98315596D01*
G37*
G36*
X116111181Y-97962043D02*
X115934404Y-97785266D01*
X116429379Y-97290291D01*
X116606156Y-97467068D01*
X116111181Y-97962043D01*
X116111181Y-97962043D01*
G37*
G36*
X115757627Y-97608490D02*
X115580850Y-97431713D01*
X116075825Y-96936738D01*
X116252602Y-97113515D01*
X115757627Y-97608490D01*
X115757627Y-97608490D01*
G37*
G36*
X115404074Y-97254936D02*
X115227297Y-97078159D01*
X115722272Y-96583184D01*
X115899049Y-96759961D01*
X115404074Y-97254936D01*
X115404074Y-97254936D01*
G37*
G36*
X115050520Y-96901383D02*
X114873743Y-96724606D01*
X115368718Y-96229631D01*
X115545495Y-96406408D01*
X115050520Y-96901383D01*
X115050520Y-96901383D01*
G37*
G36*
X114626257Y-96724606D02*
X114449480Y-96901383D01*
X113954505Y-96406408D01*
X114131282Y-96229631D01*
X114626257Y-96724606D01*
X114626257Y-96724606D01*
G37*
G36*
X114272703Y-97078159D02*
X114095926Y-97254936D01*
X113600951Y-96759961D01*
X113777728Y-96583184D01*
X114272703Y-97078159D01*
X114272703Y-97078159D01*
G37*
G36*
X113919150Y-97431713D02*
X113742373Y-97608490D01*
X113247398Y-97113515D01*
X113424175Y-96936738D01*
X113919150Y-97431713D01*
X113919150Y-97431713D01*
G37*
G36*
X113565596Y-97785266D02*
X113388819Y-97962043D01*
X112893844Y-97467068D01*
X113070621Y-97290291D01*
X113565596Y-97785266D01*
X113565596Y-97785266D01*
G37*
G36*
X113212043Y-98138819D02*
X113035266Y-98315596D01*
X112540291Y-97820621D01*
X112717068Y-97643844D01*
X113212043Y-98138819D01*
X113212043Y-98138819D01*
G37*
G36*
X112858490Y-98492373D02*
X112681713Y-98669150D01*
X112186738Y-98174175D01*
X112363515Y-97997398D01*
X112858490Y-98492373D01*
X112858490Y-98492373D01*
G37*
G36*
X112504936Y-98845926D02*
X112328159Y-99022703D01*
X111833184Y-98527728D01*
X112009961Y-98350951D01*
X112504936Y-98845926D01*
X112504936Y-98845926D01*
G37*
G36*
X112151383Y-99199480D02*
X111974606Y-99376257D01*
X111479631Y-98881282D01*
X111656408Y-98704505D01*
X112151383Y-99199480D01*
X112151383Y-99199480D01*
G37*
G36*
X115969759Y-100719759D02*
X114750000Y-99500000D01*
X115969759Y-98280241D01*
X117189518Y-99500000D01*
X115969759Y-100719759D01*
X115969759Y-100719759D01*
G37*
G36*
X114750000Y-99500000D02*
X113530241Y-98280241D01*
X114750000Y-97060482D01*
X115969759Y-98280241D01*
X114750000Y-99500000D01*
X114750000Y-99500000D01*
G37*
G36*
X114750000Y-101939518D02*
X113530241Y-100719759D01*
X114750000Y-99500000D01*
X115969759Y-100719759D01*
X114750000Y-101939518D01*
X114750000Y-101939518D01*
G37*
G36*
X113530241Y-100719759D02*
X112310482Y-99500000D01*
X113530241Y-98280241D01*
X114750000Y-99500000D01*
X113530241Y-100719759D01*
X113530241Y-100719759D01*
G37*
D23*
X91675000Y-94675000D03*
X91675000Y-95325000D03*
X91675000Y-95975000D03*
X91675000Y-96625000D03*
X91675000Y-97275000D03*
X91675000Y-97925000D03*
X91675000Y-98575000D03*
X91675000Y-99225000D03*
X91675000Y-99875000D03*
X91675000Y-100525000D03*
X91675000Y-101175000D03*
X91675000Y-101825000D03*
X98825000Y-101825000D03*
X98825000Y-101175000D03*
X98825000Y-100525000D03*
X98825000Y-99875000D03*
X98825000Y-99225000D03*
X98825000Y-98575000D03*
X98825000Y-97925000D03*
X98825000Y-97275000D03*
X98825000Y-96625000D03*
X98825000Y-95975000D03*
X98825000Y-95325000D03*
X98825000Y-94675000D03*
D10*
G36*
X103744200Y-105967711D02*
X104082290Y-106294201D01*
X103755800Y-106632291D01*
X103417710Y-106305801D01*
X103744200Y-105967711D01*
X103744200Y-105967711D01*
G37*
D24*
X104180000Y-105975001D03*
X103320000Y-105975001D03*
X104180000Y-106625001D03*
X103320000Y-106625001D03*
M02*
