M48
INCH,TZ
T1C0.016
T2C0.039
%
G90
G05
T1
X35276Y-43150
X36707Y-37791
X36727Y-38046
X36768Y-39579
X36775Y-39329
X37165Y-40709
X37717Y-41102
X37795Y-36220
X37874Y-35118
X39606Y-38976
X39812Y-40096
X40000Y-38031
X40098Y-39035
X40157Y-42205
X40223Y-38278
X40413Y-35433
X40795Y-43947
X40906Y-41228
X41024Y-37559
X41024Y-40440
X41102Y-36063
X41270Y-39764
X41496Y-40394
X42205Y-39606
X42244Y-36850
X42283Y-40079
X42360Y-42346
X42362Y-38346
X42362Y-40709
X42383Y-37969
X42449Y-36207
X43228Y-42362
X43248Y-38446
X43268Y-37648
X43399Y-42562
X43465Y-37894
X43528Y-38689
X43700Y-39761
X43701Y-35118
X43823Y-38578
X43960Y-39939
X44119Y-35322
X44153Y-43839
X44331Y-41496
X44465Y-43797
X44862Y-41496
X44908Y-43539
X45051Y-43130
X45177Y-38917
X45461Y-39350
X45543Y-43208
X45579Y-41563
X45827Y-37559
X45875Y-40862
X46073Y-38113
X46604Y-40482
X46614Y-38661
X47371Y-40590
X47585Y-38922
X47953Y-39055
X48819Y-35512
X49606Y-42126
X51181Y-41575
X51417Y-38661
X51535Y-40630
T2
X35039Y-37189
X35039Y-38189
X35039Y-39189
X35039Y-40189
X35516Y-34449
X36516Y-34449
X39173Y-34449
X39370Y-44390
X40173Y-34449
X40370Y-44390
X41173Y-34449
X41370Y-44390
X42173Y-34449
X42370Y-44390
X43173Y-34449
X43370Y-44390
X44173Y-34449
X44370Y-44390
X45173Y-34449
X45370Y-44390
X46173Y-34449
X46370Y-44390
X47173Y-34449
X47370Y-44390
X48173Y-34449
X48370Y-44390
X49173Y-34449
X49370Y-44390
X50173Y-34449
X50370Y-44390
X51165Y-36106
X51165Y-37106
X51173Y-34449
X51370Y-44390
X52165Y-36106
X52165Y-37106
X52173Y-34449
X52370Y-44390
X53165Y-36106
X53165Y-37106
X53173Y-34449
X53346Y-39173
X53346Y-40173
X53346Y-41173
X53370Y-44390
T0
M30
